<svg width="501" height="610" viewBox="0 0 501 610" fill="none" xmlns="http://www.w3.org/2000/svg">
<g clip-path="url(#clip0_829_284)">
<path d="M249.719 354.168C249.625 354.155 249.531 354.141 249.436 354.128C238.146 352.411 227.829 342.326 229.913 326.33C231.906 310.994 222.164 297.818 214.315 287.26C207.074 277.507 200.807 269.043 206.187 262.154C217.007 248.289 245.168 254.086 246.38 254.351L246.428 254.358C285.111 265.321 276.442 307.543 271.192 332.802C270.577 335.839 269.988 338.688 269.552 341.125C267.732 351.777 258.014 355.323 249.719 354.168ZM242.622 255.125C234.704 254.021 215.4 252.581 207.267 263.025C202.53 269.091 208.236 276.756 215.429 286.502C223.441 297.275 233.345 310.666 231.273 326.567C229.208 342.422 239.36 351.283 249.661 352.862C249.755 352.876 249.802 352.882 249.896 352.895C257.625 353.972 266.584 350.705 268.233 340.941C268.668 338.504 269.264 335.608 269.879 332.571C274.962 307.817 283.527 266.349 246.096 255.705C245.914 255.631 244.601 255.4 242.622 255.125Z" fill="url(#paint0_linear_829_284)"/>
<g opacity="0.9524">
<path d="M253.022 365.63C252.928 365.617 252.787 365.597 252.692 365.584C239.375 363.584 226.274 352.102 228.969 331.723C231.448 312.9 219.482 296.724 209.855 283.756C201.039 271.862 193.392 261.573 199.884 253.253C213.096 236.358 247.419 243.446 248.908 243.798L248.955 243.804C296.193 257.161 285.537 308.81 279.177 339.632C278.416 343.369 277.687 346.871 277.179 349.827C274.909 362.674 263.155 367.042 253.022 365.63ZM244.367 244.318C234.659 242.965 210.885 241.19 200.883 254.017C194.98 261.554 201.978 270.984 210.828 282.979C220.57 296.155 232.746 312.552 230.195 331.894C227.624 351.377 240.124 362.343 252.876 364.264C262.47 365.745 273.742 361.743 275.826 349.542C276.34 346.539 277.069 343.038 277.83 339.3C284.084 308.896 294.581 258.041 248.549 244.997C248.407 244.977 246.818 244.66 244.367 244.318Z" fill="url(#paint1_linear_829_284)"/>
</g>
<g opacity="0.9048">
<path d="M256.332 377.044C256.191 377.025 256.096 377.012 255.955 376.992C240.288 374.617 224.825 361.124 227.979 337.11C230.903 314.745 216.706 295.616 205.3 280.239C194.909 266.204 185.884 254.089 193.542 244.298C209.098 224.366 249.677 232.759 251.401 233.144L251.448 233.15C275.623 239.978 289.596 256.578 292.949 282.507C295.77 304.327 290.747 328.657 287.12 346.408C286.22 350.798 285.353 354.953 284.766 358.475C282.127 373.624 268.255 378.706 256.332 377.044ZM246.113 233.512C234.614 231.909 206.418 229.806 194.54 245.062C187.519 254.076 195.808 265.272 206.32 279.468C217.847 295.007 232.2 314.398 229.211 337.234C226.175 360.399 241.031 373.423 256.132 375.719C256.274 375.739 256.368 375.752 256.509 375.772C267.867 377.355 281.026 372.558 283.507 358.203C284.094 354.682 284.961 350.527 285.868 346.089C293.287 310.082 305.723 249.793 251.096 234.302C250.901 234.323 249.035 233.919 246.113 233.512Z" fill="url(#paint2_linear_829_284)"/>
</g>
<g opacity="0.8571">
<path d="M259.635 388.506C259.494 388.487 259.352 388.467 259.211 388.447C241.147 385.69 223.375 370.146 226.981 342.544C230.391 316.692 213.97 294.562 200.786 276.775C188.773 260.593 178.422 246.611 187.185 235.438C205.087 212.47 253.417 222.471 253.882 222.584L253.929 222.59C281.801 230.461 297.917 249.618 301.781 279.462C305.044 304.658 299.26 332.726 295.057 353.231C294.012 358.322 293.005 363.13 292.299 367.163C289.298 384.568 273.349 390.417 259.635 388.506ZM247.853 222.752C234.563 220.901 201.945 218.469 188.144 236.148C179.957 246.633 189.584 259.601 201.753 276.045C215.058 293.993 231.642 316.338 228.166 342.661C224.618 369.503 241.877 384.591 259.382 387.222C272.652 389.215 288.211 383.744 291.087 366.898C291.8 362.818 292.806 358.01 293.852 352.919C302.443 311.262 316.811 241.585 253.63 223.701C253.394 223.669 251.246 223.225 247.853 222.752Z" fill="url(#paint3_linear_829_284)"/>
</g>
<g opacity="0.8095">
<path d="M262.992 399.928C262.804 399.901 262.662 399.882 262.521 399.862C242.1 396.776 221.973 379.175 226.091 347.897C229.94 318.551 211.341 293.427 196.38 273.231C182.791 254.907 171.061 239.1 180.943 226.449C201.237 200.451 255.917 211.769 256.476 211.895L256.523 211.902C288.094 220.817 306.304 242.523 310.72 276.336C314.426 304.909 307.88 336.713 303.061 359.919C301.87 365.71 300.731 371.124 299.946 375.723C296.468 395.512 278.45 402.082 262.992 399.928ZM249.599 211.946C234.518 209.845 197.478 207.086 181.807 227.146C172.454 239.102 183.42 253.842 197.246 272.535C212.329 292.892 231.09 318.231 227.175 348.048C223.162 378.572 242.776 395.718 262.631 398.724C262.773 398.744 262.961 398.77 263.103 398.79C278.042 400.872 295.449 394.554 298.721 375.552C299.506 370.954 300.651 365.492 301.842 359.701C311.598 312.442 327.906 233.331 256.13 213C255.888 213.014 253.463 212.484 249.599 211.946Z" fill="url(#paint4_linear_829_284)"/>
</g>
<g opacity="0.7619">
<path d="M266.295 411.39C266.107 411.363 265.918 411.337 265.73 411.311C242.912 407.843 220.47 388.238 225.047 353.324C229.388 320.444 208.511 292.361 191.772 269.754C176.608 249.289 163.499 231.657 174.5 217.528C197.131 188.541 258.256 201.19 258.862 201.322L258.909 201.329C294.171 211.335 314.536 235.503 319.458 273.277C323.605 305.227 316.252 340.762 310.904 366.729C309.574 373.173 308.336 379.294 307.432 384.405C303.693 406.416 283.591 413.8 266.295 411.39ZM251.338 201.187C234.467 198.836 192.963 195.695 175.411 218.231C164.939 231.665 177.196 248.17 192.678 269.112C209.546 291.832 230.531 320.171 226.131 353.475C221.659 387.635 243.575 406.879 265.881 410.227C266.069 410.253 266.258 410.28 266.399 410.299C283.176 412.637 302.66 405.551 306.348 384.254C307.259 379.096 308.496 372.975 309.827 366.531C320.748 313.669 338.988 225.17 258.664 202.4C258.387 202.313 255.674 201.791 251.338 201.187Z" fill="url(#paint5_linear_829_284)"/>
</g>
<g opacity="0.7143">
<path d="M269.605 422.804C269.417 422.778 269.181 422.745 268.992 422.719C243.825 418.876 219.028 397.213 224.063 358.664C228.843 322.289 205.789 291.213 187.271 266.197C169.842 242.677 156.051 224.085 168.204 208.579C193.18 176.556 260.749 190.536 261.403 190.675L261.45 190.681C300.41 201.731 322.917 228.456 328.296 270.185C332.893 305.464 324.771 344.784 318.848 373.505C317.372 380.649 316.002 387.377 315.019 393.053C310.863 417.36 288.692 425.464 269.605 422.804ZM253.084 190.38C234.375 187.773 188.496 184.311 169.021 209.27C157.383 224.175 170.932 242.445 188.124 265.595C206.77 290.725 229.939 322.01 225.099 358.808C220.116 396.644 244.441 417.905 269.137 421.682C287.814 424.525 309.845 416.737 313.982 392.908C314.965 387.232 316.342 380.458 317.818 373.313C323.728 344.687 331.789 305.454 327.267 270.33C321.854 228.5 300.218 202.761 261.164 191.698C260.928 191.665 257.891 191.05 253.084 190.38Z" fill="url(#paint6_linear_829_284)"/>
</g>
<g opacity="0.6667">
<path d="M272.908 434.266C272.673 434.234 272.484 434.207 272.248 434.175C257.807 431.97 244.309 424.372 235.334 413.273C224.798 400.275 220.581 383.305 223.112 364.104C228.331 324.236 203.1 290.165 182.805 262.74C163.713 237.019 148.63 216.661 161.902 199.678C189.27 164.626 263.236 179.928 263.984 180.081L264.031 180.087C306.688 192.181 331.291 221.455 337.222 267.153C342.214 305.802 333.331 348.859 326.879 380.341C325.264 388.139 323.755 395.519 322.693 401.761C318.034 428.304 293.785 437.176 272.908 434.266ZM254.823 179.621C234.323 176.764 184.023 172.974 162.678 200.315C149.922 216.697 164.761 236.733 183.61 262.131C204.034 289.671 229.434 323.909 224.108 364.195C218.66 405.713 245.341 429.032 272.393 433.138C272.628 433.171 272.817 433.197 273.053 433.23C293.459 436.073 317.149 427.412 321.616 401.563C322.678 395.321 324.234 387.947 325.808 380.095C332.295 348.715 341.164 305.752 336.152 267.244C330.2 221.351 306.503 193.164 263.704 181.051C263.421 181.011 260.102 180.356 254.823 179.621Z" fill="url(#paint7_linear_829_284)"/>
</g>
<g opacity="0.619">
<path d="M276.259 445.735C276.023 445.702 275.787 445.669 275.552 445.637C259.837 443.255 245.233 434.974 235.434 422.896C223.993 408.81 219.408 390.348 222.169 369.498C227.88 326.095 200.378 289.017 178.297 259.229C157.549 231.26 141.215 209.191 155.552 190.771C185.265 152.682 265.629 169.308 266.47 169.474L266.518 169.48C291.474 176.561 310.917 189.071 324.322 206.648C335.766 221.743 343.114 241.071 346.107 264.068C351.541 306.093 341.892 352.935 334.87 387.123C333.109 395.622 331.461 403.655 330.28 410.409C325.252 439.254 298.88 448.887 276.259 445.735ZM256.569 168.815C234.278 165.709 179.508 161.584 156.288 191.353C142.366 209.207 158.544 231.014 179.049 258.661C201.204 288.604 228.828 325.843 223.064 369.623C217.15 414.823 246.14 440.193 275.636 444.687C298.076 448.102 324.308 438.786 329.243 410.264C330.431 403.464 332.079 395.43 333.84 386.932C340.902 352.797 350.532 306.097 345.078 264.212C338.628 214.311 312.83 183.62 266.238 170.45C265.915 170.357 262.319 169.616 256.569 168.815Z" fill="url(#paint8_linear_829_284)"/>
</g>
<g opacity="0.5714">
<path d="M279.568 457.15C279.286 457.11 279.05 457.078 278.814 457.045C261.875 454.492 246.071 445.516 235.535 432.518C223.195 417.299 218.241 397.343 221.178 374.885C227.328 327.988 197.649 287.916 173.784 255.766C151.419 225.602 133.747 201.76 149.203 181.863C181.307 140.744 268.069 158.695 268.951 158.914L268.998 158.92C295.941 166.566 316.976 180.066 331.382 199.08C343.766 215.363 351.664 236.257 354.885 261.063C360.762 306.465 350.351 357.044 342.713 393.933C340.806 403.132 339.026 411.771 337.766 419.09C332.429 450.151 303.98 460.551 279.568 457.15ZM258.309 158.055C234.227 154.7 175.035 150.247 149.938 182.446C134.857 201.723 152.374 225.302 174.535 255.198C198.475 287.503 228.323 327.742 222.073 375.009C215.647 423.886 247.039 451.32 278.892 456.143C279.128 456.176 279.41 456.215 279.646 456.248C303.681 459.597 331.572 449.407 336.83 418.912C338.09 411.593 339.877 402.906 341.783 393.707C349.368 356.859 359.813 306.381 353.916 261.12C346.927 207.156 319.068 174.016 268.691 159.742C268.456 159.709 264.53 158.922 258.309 158.055Z" fill="url(#paint9_linear_829_284)"/>
</g>
<g opacity="0.5238">
<path d="M282.871 468.612C282.589 468.572 282.306 468.533 282.023 468.493C263.818 465.717 246.894 456.152 235.582 442.181C222.343 425.827 217.013 404.427 220.187 380.271C226.83 329.84 194.919 286.815 169.283 252.208C145.262 219.795 126.298 194.189 142.907 172.914C160.922 149.818 194.926 144.371 220.32 143.826C247.733 143.274 271.262 148.186 271.491 148.266L271.538 148.272C300.516 156.49 323.048 170.967 338.555 191.384C351.825 208.895 360.334 231.267 363.777 257.93C370.102 306.661 358.877 361.018 350.71 400.668C348.665 410.52 346.739 419.86 345.406 427.698C339.6 461.095 309.121 472.269 282.871 468.612ZM260.055 147.249C234.182 143.644 170.568 138.863 143.555 173.437C127.355 194.192 146.157 219.584 169.934 251.674C195.652 286.389 227.683 329.574 221.042 380.342C214.157 432.854 247.898 462.393 282.148 467.598C282.431 467.637 282.713 467.677 282.949 467.71C308.775 471.308 338.79 460.357 344.464 427.566C345.803 419.682 347.729 410.342 349.774 400.49C357.935 360.887 369.147 306.624 362.849 258.041C355.314 200.061 325.354 164.419 271.279 149.101C270.949 149.055 266.794 148.188 260.055 147.249Z" fill="url(#paint10_linear_829_284)"/>
</g>
<g opacity="0.4762">
<path d="M286.181 480.027C285.899 479.987 285.569 479.941 285.286 479.902C265.855 476.954 247.732 466.694 235.642 451.75C221.497 434.309 215.799 411.416 219.203 385.611C226.284 331.685 192.15 285.661 164.729 248.691C139.092 214.083 118.837 186.712 136.558 164.007C155.799 139.352 192.17 133.466 219.294 132.922C248.638 132.302 273.743 137.626 273.978 137.659L274.025 137.665C304.99 146.448 329.067 161.909 345.628 183.722C359.838 202.421 368.897 226.359 372.616 254.838C379.383 306.946 367.397 365.04 358.654 407.444C356.463 417.996 354.404 427.943 352.993 436.346C346.771 472.039 314.222 483.934 286.181 480.027ZM261.188 136.357C251.056 134.945 235.849 133.403 219.276 133.736C192.341 134.307 156.225 140.084 137.212 164.482C119.846 186.708 139.986 213.872 165.42 248.211C192.916 285.335 227.179 331.474 220.051 385.729C212.654 441.917 248.751 473.514 285.451 479.06C285.734 479.099 286.017 479.139 286.347 479.185C314.01 483.039 346.102 471.321 352.192 436.234C353.65 427.838 355.715 417.844 357.859 407.285C366.596 364.929 378.569 306.928 371.829 254.968C363.748 192.973 331.687 154.828 273.82 138.453C273.49 138.407 268.776 137.414 261.188 136.357Z" fill="url(#paint11_linear_829_284)"/>
</g>
<g opacity="0.4286">
<path d="M289.579 491.502C289.249 491.456 288.919 491.41 288.542 491.357C267.839 488.232 248.609 477.29 235.735 461.419C220.692 442.845 214.619 418.506 218.253 391.052C225.773 333.632 189.461 284.614 160.262 245.234C132.922 208.372 111.369 179.281 130.208 155.099C150.682 128.838 189.407 122.608 218.267 122.017C249.488 121.371 276.229 127.019 276.512 127.058L276.559 127.065C309.511 136.413 335.125 152.905 352.742 176.114C367.837 196.041 377.5 221.505 381.441 251.84C388.65 307.324 375.903 369.156 366.584 414.314C364.248 425.567 362.097 436.173 360.52 445.081C357.564 462.157 348.539 475.552 334.423 483.77C321.877 491.054 305.979 493.787 289.579 491.502ZM262.887 125.544C252.095 124.04 235.892 122.407 218.256 122.784C189.592 123.354 151.115 129.523 130.815 155.568C112.331 179.271 133.715 208.194 160.853 244.788C190.133 284.275 226.566 333.454 219.007 391.157C211.145 451.027 249.597 484.682 288.647 490.603C288.977 490.649 289.26 490.689 289.59 490.734C319.044 494.839 353.313 482.319 359.725 444.922C361.262 435.96 363.46 425.361 365.796 414.108C375.109 368.997 387.843 307.26 380.66 251.923C372.088 185.872 337.966 145.278 276.313 127.799C276.03 127.76 270.993 126.674 262.887 125.544Z" fill="url(#paint12_linear_829_284)"/>
</g>
<g opacity="0.381">
<path d="M292.882 502.964C292.505 502.911 292.175 502.865 291.798 502.813C269.876 499.47 249.433 487.926 235.782 471.082C219.84 451.374 213.439 425.596 217.255 396.486C225.268 335.532 186.726 283.56 155.748 241.771C141.801 222.916 128.618 205.129 121.699 189.272C114.021 171.628 114.727 157.938 123.906 146.198C145.606 118.378 186.645 111.75 217.281 111.166C250.379 110.494 278.757 116.466 279.04 116.505C313.978 126.418 341.184 143.901 359.855 168.506C375.89 189.62 386.104 216.65 390.319 248.801C397.925 307.656 384.416 373.225 374.521 421.137C372.046 433.043 369.756 444.302 368.1 453.776C365 471.888 355.432 486.073 340.436 494.745C327.159 502.455 310.272 505.387 292.882 502.964ZM264.579 114.778C253.127 113.183 235.928 111.459 217.236 111.833C186.788 112.442 145.998 119.009 124.472 146.613C104.822 171.787 127.545 202.482 156.339 241.325C187.397 283.221 226.014 335.347 218.009 396.591C209.682 460.143 250.49 495.856 291.944 502.112C292.274 502.158 292.603 502.204 292.933 502.25C324.226 506.611 360.572 493.323 367.399 453.631C369.062 444.11 371.352 432.851 373.828 420.945C383.709 373.126 397.211 307.604 389.593 248.844C380.529 178.737 344.299 135.687 278.854 117.152C278.53 117.059 273.204 115.98 264.579 114.778Z" fill="url(#paint13_linear_829_284)"/>
</g>
<g opacity="0.3333">
<path d="M296.239 514.385C295.862 514.332 295.485 514.28 295.108 514.227C271.914 510.707 250.365 498.48 235.93 480.711C219.082 459.915 212.313 432.645 216.318 401.832C224.77 337.384 184.003 282.412 151.248 238.213C136.489 218.285 122.535 199.477 115.257 182.754C107.138 164.135 107.855 149.678 117.563 137.243C140.496 107.817 183.888 100.844 216.213 100.208C251.189 99.5086 281.203 105.805 281.486 105.844C318.418 116.275 347.162 134.789 366.888 160.79C383.814 183.086 394.68 211.648 399.07 245.649C407.124 307.832 392.848 377.186 382.384 427.806C379.763 440.412 377.334 452.324 375.605 462.316C372.314 481.459 362.204 496.433 346.415 505.619C332.387 513.897 314.618 516.946 296.239 514.385ZM266.278 103.965C254.167 102.278 236.025 100.422 216.222 100.834C184.039 101.49 140.895 108.401 118.089 137.604C97.2732 164.25 121.334 196.716 151.791 237.76C184.628 282.066 225.476 337.146 216.984 401.876C208.145 469.105 251.356 506.882 295.206 513.52C295.536 513.566 295.913 513.619 296.243 513.665C329.326 518.275 367.796 504.226 375.04 462.237C376.775 452.198 379.204 440.286 381.825 427.68C392.236 377.101 406.552 307.801 398.485 245.711C388.869 171.635 350.537 126.083 281.347 106.497C281.071 106.411 275.421 105.239 266.278 103.965Z" fill="url(#paint14_linear_829_284)"/>
</g>
<g opacity="0.2857">
<path d="M299.542 525.847C299.165 525.794 298.741 525.735 298.364 525.683C273.944 521.992 251.195 509.069 236.03 490.334C218.284 468.404 211.139 439.688 215.374 407.225C224.312 339.29 181.328 281.27 146.787 234.709C131.218 213.707 116.54 193.886 108.815 176.235C100.255 156.642 101.037 141.378 111.267 128.294C135.473 97.317 181.179 89.9456 215.24 89.2629C252.147 88.4964 283.744 95.157 284.027 95.1964C322.946 106.192 353.234 125.69 374.055 153.141C391.914 176.672 403.337 206.753 407.949 242.61C416.445 308.171 401.361 381.255 390.368 434.635C387.608 447.895 385.04 460.46 383.226 471.065C379.749 491.191 369.091 507.001 352.463 516.694C337.668 525.298 318.911 528.546 299.542 525.847ZM267.97 93.1994C255.199 91.4198 236.061 89.4737 215.195 89.9293C181.229 90.6251 135.724 97.9285 111.686 128.737C89.8049 156.819 115.164 191.004 147.271 234.344C164.619 257.756 184.312 284.329 198.179 313.068C214.141 346.088 219.933 376.921 215.94 407.304C206.642 478.168 252.161 517.996 298.409 525.016C298.786 525.069 299.163 525.121 299.493 525.167C334.414 530.033 374.96 515.217 382.573 470.926C384.387 460.321 386.995 447.809 389.715 434.496C400.701 381.163 415.779 308.126 407.269 242.66C397.209 164.534 356.823 116.486 283.887 95.8496C283.564 95.7565 277.584 94.539 267.97 93.1994Z" fill="url(#paint15_linear_829_284)"/>
</g>
<g opacity="0.2381">
<path d="M302.852 537.261C302.428 537.202 302.003 537.143 301.579 537.084C275.894 533.169 252.026 519.658 236.036 499.943C217.384 476.926 209.871 446.717 214.336 412.605C223.719 341.129 178.551 280.163 142.233 231.192C125.899 209.122 110.451 188.281 102.372 169.716C93.3784 149.102 94.2116 133.124 104.918 119.386C116.146 105.001 132.69 94.1907 154.112 87.327C171.212 81.8308 191.423 78.8339 214.213 78.3583C252.998 77.5651 286.231 84.5498 286.554 84.6429C327.46 96.204 359.286 116.733 381.168 145.532C399.92 170.245 411.94 201.898 416.827 239.571C425.766 308.508 409.915 385.377 398.352 441.465C395.493 455.431 392.746 468.596 390.853 479.766C387.185 500.922 376.031 517.528 358.517 527.723C342.949 536.699 323.211 540.098 302.852 537.261ZM269.716 82.3929C256.285 80.5213 236.151 78.4845 214.229 78.937C178.526 79.6792 130.667 87.3271 105.397 119.741C94.8111 133.304 94.0514 149.1 102.93 169.506C111.015 188.024 126.423 208.811 142.757 230.88C160.99 255.52 181.705 283.389 196.277 313.62C213.058 348.339 219.159 380.753 214.949 412.69C205.139 487.23 253.061 529.123 301.705 536.525C302.082 536.578 302.459 536.63 302.883 536.689C339.595 541.805 382.266 526.228 390.301 479.593C392.234 468.477 394.941 455.258 397.8 441.292C409.362 385.204 425.201 308.43 416.296 239.593C405.65 157.399 363.155 106.895 286.435 85.1547C286.105 85.1088 279.802 83.7981 269.716 82.3929Z" fill="url(#paint16_linear_829_284)"/>
</g>
<g opacity="0.1905">
<path d="M306.202 548.73C305.778 548.671 305.307 548.606 304.882 548.546C277.972 544.46 252.903 530.254 236.177 509.619C216.579 485.462 208.738 453.814 213.433 418.052C223.255 343.082 175.863 279.116 137.766 227.735C120.621 204.592 104.402 182.731 95.9238 163.245C86.489 141.657 87.3395 124.864 98.6152 110.485C110.373 95.4051 127.756 84.0872 150.186 76.8836C168.14 71.122 189.333 67.9737 213.234 67.4606C253.896 66.6407 288.765 73.9495 289.088 74.0426C331.981 86.1688 365.399 107.688 388.335 137.884C407.98 163.777 420.557 196.949 425.666 236.479C435.047 308.793 418.434 389.399 406.296 448.241C403.291 462.907 400.405 476.726 398.393 488.408C394.58 510.601 382.837 527.989 364.489 538.644C348.177 548.141 327.551 551.705 306.202 548.73ZM271.415 71.5801C257.371 69.6232 236.194 67.4891 213.215 67.9384C175.729 68.7204 125.503 76.8072 99.0065 110.78C87.8919 125.037 87.0742 141.594 96.3873 163.021C104.825 182.453 121.051 204.267 138.196 227.411C157.322 253.232 179.044 282.49 194.368 314.219C211.969 350.637 218.378 384.632 213.952 418.125C203.677 496.347 253.954 540.297 304.955 548.028C305.379 548.087 305.756 548.14 306.18 548.199C344.683 553.564 389.477 537.226 397.881 488.289C399.893 476.606 402.732 462.782 405.784 448.122C417.916 389.327 434.522 308.768 425.175 236.555C413.99 150.298 369.394 97.291 288.928 74.5007C288.645 74.4613 282.019 73.0576 271.415 71.5801Z" fill="url(#paint17_linear_829_284)"/>
</g>
<g opacity="0.1429">
<path d="M309.505 560.192C309.034 560.127 308.563 560.061 308.139 560.002C279.956 555.738 253.775 540.897 236.231 519.235C215.734 493.943 207.525 460.803 212.443 423.439C222.757 344.934 173.134 278.015 133.259 224.224C115.31 199.96 98.3201 177.079 89.4346 156.72C79.6128 134.117 80.4676 116.604 92.2254 101.524C104.559 85.7552 122.735 73.9231 146.173 66.3796C164.934 60.3461 187.156 57.0529 212.16 56.5494C254.753 55.6624 291.205 63.3358 291.528 63.4289C336.408 76.1202 371.37 98.6233 395.355 130.262C415.932 157.391 429.113 192.088 434.498 233.434C444.327 309.077 426.9 393.461 414.186 455.057C411.042 470.377 408.064 484.855 405.926 497.096C401.922 520.319 389.683 538.503 370.449 549.659C353.458 559.543 331.844 563.305 309.505 560.192ZM273.108 60.8142C258.404 58.7654 236.284 56.4999 212.189 57.0339C172.973 57.8151 120.393 66.2464 92.6572 101.872C80.9794 116.724 80.1378 134.142 89.8916 156.543C98.7365 176.849 115.679 199.723 133.635 223.941C153.654 250.943 176.383 281.59 192.419 314.764C210.84 352.882 217.51 388.45 212.92 423.458C202.18 505.363 254.766 551.364 308.211 559.483C308.635 559.543 309.059 559.602 309.483 559.661C349.824 565.282 396.695 548.176 405.515 496.943C407.606 484.695 410.631 470.224 413.775 454.904C426.483 393.355 443.85 309.059 434.06 233.469C422.33 143.197 375.72 87.7473 291.469 63.8531C291.139 63.8071 284.23 62.3639 273.108 60.8142Z" fill="url(#paint18_linear_829_284)"/>
</g>
<g opacity="0.095238">
<path d="M312.815 571.607C312.344 571.541 311.872 571.476 311.354 571.403C281.952 566.922 254.565 551.432 236.284 528.851C214.882 502.472 206.304 467.839 211.411 428.772C222.164 346.773 170.364 276.86 128.711 220.66C109.944 195.369 92.2308 171.474 82.9923 150.201C72.7297 126.624 73.649 108.304 85.9294 92.5755C98.7927 76.1119 117.76 63.7656 142.254 55.8887C161.868 49.5898 185.025 46.1386 211.139 45.5977C255.61 44.684 293.698 52.6815 294.068 52.7812C340.936 66.0376 377.442 89.5246 402.528 122.566C424.045 150.882 437.776 187.146 443.383 230.348C453.608 309.361 435.467 397.489 422.183 461.792C418.894 477.813 415.777 492.944 413.566 505.703C409.37 529.956 396.59 548.93 376.563 560.6C358.733 570.991 336.143 574.857 312.815 571.607ZM274.806 50.0011C259.443 47.8604 236.327 45.5041 211.175 46.035C170.17 46.9031 115.283 55.6856 86.2736 92.8637C74.1071 108.464 73.2075 126.642 83.3956 150.065C92.6407 171.291 110.354 195.186 129.074 220.47C149.978 248.701 173.721 280.691 190.462 315.356C209.657 355.167 216.682 392.322 211.876 428.885C200.63 514.419 255.612 562.531 311.46 570.986C311.884 571.045 312.356 571.11 312.78 571.17C354.911 577.04 403.912 559.126 413.142 505.644C415.352 492.885 418.47 477.753 421.759 461.733C435.043 397.43 453.177 309.349 442.939 230.431C430.716 136.102 382.006 78.1499 293.962 53.1987C293.679 53.1593 286.447 51.6231 274.806 50.0011Z" fill="url(#paint19_linear_829_284)"/>
</g>
<g opacity="0.047619">
<path d="M316.166 583.075C315.647 583.003 315.176 582.937 314.657 582.865C283.983 578.207 255.49 562.034 236.378 538.52C214.077 511.007 205.124 474.929 210.461 434.213C221.7 348.726 167.628 275.806 124.198 217.197C104.666 190.838 86.1825 165.923 76.4966 143.723C65.7998 119.124 66.7234 100.084 79.533 83.6611C92.9321 66.4554 112.692 53.595 138.241 45.3847C158.662 38.8138 182.848 35.2178 210.072 34.6394C256.508 33.7592 296.185 42.0743 296.555 42.174C321.788 49.3411 344.318 59.3505 363.5 72.016C381.454 83.8379 396.974 98.2993 409.595 114.951C414.063 120.81 418.196 127.007 422 133.494C397.991 92.724 358.526 60.1292 296.503 42.551C295.85 42.4119 256.314 34.1166 210.155 35.0832C167.42 35.9506 110.173 45.1248 79.8838 83.9021C67.1947 100.15 66.2306 119.136 76.9065 143.54C86.5518 165.686 104.988 190.595 124.567 216.96C146.363 246.372 171.114 279.751 188.566 315.861C208.581 357.371 215.921 396.059 210.892 434.225C199.181 523.441 256.519 573.611 314.717 582.441C315.188 582.507 315.659 582.572 316.13 582.638C360.1 588.765 411.178 570.083 420.783 514.251C423.072 500.926 426.322 485.189 429.757 468.469C444.536 396.879 464.504 300.118 450.492 215.533C451.158 219.373 451.716 223.294 452.221 227.256C462.889 309.646 443.94 401.504 430.127 468.568C426.699 485.242 423.442 501.026 421.153 514.351C416.819 539.594 403.443 559.397 382.577 571.575C363.967 582.386 340.436 586.457 316.166 583.075Z" fill="url(#paint20_linear_829_284)"/>
</g>
<path d="M279.709 456.833C279.426 456.794 279.19 456.761 278.955 456.728C261.968 454.169 246.164 445.193 235.588 432.141C223.254 416.874 218.253 396.913 221.25 374.366C227.381 327.611 197.735 287.64 173.965 255.503C151.56 225.285 133.847 201.39 149.41 181.411C181.575 140.205 268.377 158.209 269.265 158.381L269.312 158.387C296.303 166.04 317.291 179.533 331.743 198.554C344.121 214.884 352.026 235.731 355.24 260.584C361.117 305.986 350.713 356.518 343.074 393.407C341.175 402.558 339.388 411.245 338.128 418.564C332.765 449.813 304.262 460.254 279.709 456.833ZM258.511 157.987C234.476 154.638 175.472 150.212 150.449 182.229C135.482 201.378 152.911 224.897 174.991 254.685C198.931 286.99 228.779 327.229 222.523 374.543C216.123 423.231 247.387 450.552 279.145 455.361C303.235 459.006 331.53 449.017 336.808 418.381C338.068 411.062 339.855 402.375 341.755 393.223C349.333 356.422 359.724 305.984 353.909 260.831C346.947 207.014 319.122 173.976 268.934 159.728C268.563 159.628 264.684 158.848 258.511 157.987Z" fill="url(#paint21_linear_829_284)"/>
</g>
<defs>
<linearGradient id="paint0_linear_829_284" x1="270.09" y1="293.439" x2="205.177" y2="298.37" gradientUnits="userSpaceOnUse">
<stop stop-color="#F15C22"/>
<stop offset="1" stop-color="#5553A4"/>
</linearGradient>
<linearGradient id="paint1_linear_829_284" x1="277.835" y1="291.493" x2="198.665" y2="297.492" gradientUnits="userSpaceOnUse">
<stop stop-color="#F15C22"/>
<stop offset="1" stop-color="#5553A4"/>
</linearGradient>
<linearGradient id="paint2_linear_829_284" x1="285.508" y1="289.474" x2="192.089" y2="296.535" gradientUnits="userSpaceOnUse">
<stop stop-color="#F15C22"/>
<stop offset="1" stop-color="#5553A4"/>
</linearGradient>
<linearGradient id="paint3_linear_829_284" x1="293.212" y1="287.562" x2="185.524" y2="295.703" gradientUnits="userSpaceOnUse">
<stop stop-color="#F15C22"/>
<stop offset="1" stop-color="#5553A4"/>
</linearGradient>
<linearGradient id="paint4_linear_829_284" x1="301.022" y1="285.531" x2="179.07" y2="294.732" gradientUnits="userSpaceOnUse">
<stop stop-color="#F15C22"/>
<stop offset="1" stop-color="#5553A4"/>
</linearGradient>
<linearGradient id="paint5_linear_829_284" x1="308.618" y1="283.58" x2="172.414" y2="293.851" gradientUnits="userSpaceOnUse">
<stop stop-color="#F15C22"/>
<stop offset="1" stop-color="#5553A4"/>
</linearGradient>
<linearGradient id="paint6_linear_829_284" x1="316.331" y1="281.566" x2="165.813" y2="292.919" gradientUnits="userSpaceOnUse">
<stop stop-color="#F15C22"/>
<stop offset="1" stop-color="#5553A4"/>
</linearGradient>
<linearGradient id="paint7_linear_829_284" x1="324.1" y1="279.608" x2="159.296" y2="292.034" gradientUnits="userSpaceOnUse">
<stop stop-color="#F15C22"/>
<stop offset="1" stop-color="#5553A4"/>
</linearGradient>
<linearGradient id="paint8_linear_829_284" x1="331.855" y1="277.648" x2="152.752" y2="291.152" gradientUnits="userSpaceOnUse">
<stop stop-color="#F15C22"/>
<stop offset="1" stop-color="#5553A4"/>
</linearGradient>
<linearGradient id="paint9_linear_829_284" x1="339.518" y1="275.673" x2="146.189" y2="290.242" gradientUnits="userSpaceOnUse">
<stop stop-color="#F15C22"/>
<stop offset="1" stop-color="#5553A4"/>
</linearGradient>
<linearGradient id="paint10_linear_829_284" x1="347.262" y1="273.665" x2="139.652" y2="289.295" gradientUnits="userSpaceOnUse">
<stop stop-color="#F15C22"/>
<stop offset="1" stop-color="#5553A4"/>
</linearGradient>
<linearGradient id="paint11_linear_829_284" x1="354.975" y1="271.686" x2="133.09" y2="288.395" gradientUnits="userSpaceOnUse">
<stop stop-color="#F15C22"/>
<stop offset="1" stop-color="#5553A4"/>
</linearGradient>
<linearGradient id="paint12_linear_829_284" x1="362.686" y1="269.723" x2="126.525" y2="287.501" gradientUnits="userSpaceOnUse">
<stop stop-color="#F15C22"/>
<stop offset="1" stop-color="#5553A4"/>
</linearGradient>
<linearGradient id="paint13_linear_829_284" x1="370.404" y1="267.79" x2="120.032" y2="286.628" gradientUnits="userSpaceOnUse">
<stop stop-color="#F15C22"/>
<stop offset="1" stop-color="#5553A4"/>
</linearGradient>
<linearGradient id="paint14_linear_829_284" x1="378.037" y1="265.767" x2="113.465" y2="285.652" gradientUnits="userSpaceOnUse">
<stop stop-color="#F15C22"/>
<stop offset="1" stop-color="#5553A4"/>
</linearGradient>
<linearGradient id="paint15_linear_829_284" x1="385.781" y1="263.767" x2="106.932" y2="284.714" gradientUnits="userSpaceOnUse">
<stop stop-color="#F15C22"/>
<stop offset="1" stop-color="#5553A4"/>
</linearGradient>
<linearGradient id="paint16_linear_829_284" x1="393.538" y1="261.798" x2="100.394" y2="283.83" gradientUnits="userSpaceOnUse">
<stop stop-color="#F15C22"/>
<stop offset="1" stop-color="#5553A4"/>
</linearGradient>
<linearGradient id="paint17_linear_829_284" x1="401.25" y1="259.834" x2="93.8382" y2="282.934" gradientUnits="userSpaceOnUse">
<stop stop-color="#F15C22"/>
<stop offset="1" stop-color="#5553A4"/>
</linearGradient>
<linearGradient id="paint18_linear_829_284" x1="408.936" y1="257.857" x2="87.2611" y2="282.022" gradientUnits="userSpaceOnUse">
<stop stop-color="#F15C22"/>
<stop offset="1" stop-color="#5553A4"/>
</linearGradient>
<linearGradient id="paint19_linear_829_284" x1="416.685" y1="255.85" x2="80.7321" y2="281.086" gradientUnits="userSpaceOnUse">
<stop stop-color="#F15C22"/>
<stop offset="1" stop-color="#5553A4"/>
</linearGradient>
<linearGradient id="paint20_linear_829_284" x1="424.374" y1="253.88" x2="74.1239" y2="280.193" gradientUnits="userSpaceOnUse">
<stop stop-color="#F15C22"/>
<stop offset="1" stop-color="#5553A4"/>
</linearGradient>
<linearGradient id="paint21_linear_829_284" x1="339.848" y1="275.242" x2="146.363" y2="289.826" gradientUnits="userSpaceOnUse">
<stop stop-color="#F15C22"/>
<stop offset="1" stop-color="#5553A4"/>
</linearGradient>
<clipPath id="clip0_829_284">
<rect width="428.052" height="555.288" fill="white" transform="translate(76.6335) rotate(7.93252)"/>
</clipPath>
</defs>
</svg>
