<svg width="409" height="1000" viewBox="0 0 409 1000" fill="none" xmlns="http://www.w3.org/2000/svg">
<g clip-path="url(#clip0_829_1694)">
<path d="M-60.6583 431.452C-60.5212 431.408 -60.3841 431.364 -60.2469 431.319C-43.7242 426.229 -23.0196 433.193 -15.3296 456.382C-7.94879 478.611 14.0073 490.168 31.6588 499.401C47.9507 507.936 62.067 515.355 59.269 528.292C53.6486 554.327 11.4407 564.958 9.61379 565.395L9.54522 565.417C-50.4077 575.929 -66.3886 512.635 -75.864 474.728C-77.0248 470.181 -78.0972 465.908 -79.1081 462.296C-83.6397 446.57 -72.7264 435.336 -60.6583 431.452ZM14.2289 561.865C25.7484 558.158 53.0133 547.415 57.2236 527.815C59.6869 516.424 46.8616 509.725 30.6384 501.168C12.6242 491.749 -9.69443 480.005 -17.3402 456.953C-24.9639 433.97 -44.6367 428.567 -59.7194 433.194C-59.8565 433.238 -59.9251 433.26 -60.0622 433.304C-71.3075 436.923 -81.3689 447.277 -77.1882 461.679C-76.1773 465.29 -75.0828 469.631 -73.922 474.179C-64.5523 511.287 -48.9246 573.484 9.11069 563.361C9.40704 563.341 11.349 562.792 14.2289 561.865Z" fill="url(#paint0_linear_829_1694)"/>
<g opacity="0.9524">
<path d="M-72.708 417.993C-72.5709 417.949 -72.3652 417.883 -72.228 417.839C-52.7569 411.8 -27.3373 418.836 -17.5942 448.405C-8.57961 475.71 18.384 489.895 40.0461 501.244C59.8952 511.663 77.0935 520.664 73.7213 536.284C66.835 568.025 15.3773 580.952 13.1169 581.452L13.0483 581.474C-60.1416 594.355 -79.6223 516.894 -91.2449 470.669C-92.6682 465.071 -93.9812 459.815 -95.235 455.45C-100.598 436.432 -87.4502 422.738 -72.708 417.993ZM18.9639 577.754C33.0891 573.208 66.6669 559.979 71.8572 535.9C74.9412 521.735 59.1932 513.479 39.2313 502.945C17.2753 491.388 -10.1195 477.038 -19.377 448.978C-28.7006 420.713 -52.9615 413.985 -71.6098 419.76C-85.6641 424.056 -98.3939 436.934 -93.2023 454.947C-91.9265 459.381 -90.6135 464.637 -89.1902 470.235C-77.6977 515.82 -58.5238 592.093 12.8172 579.581C13.0229 579.514 15.3984 578.901 18.9639 577.754Z" fill="url(#paint1_linear_829_1694)"/>
</g>
<g opacity="0.9048">
<path d="M-84.7357 404.603C-84.53 404.537 -84.3929 404.493 -84.1872 404.427C-61.2655 397.353 -31.302 405.576 -19.7903 440.405C-9.05139 472.834 22.8978 489.578 48.5703 503.043C71.9767 515.345 92.257 525.928 88.264 544.322C80.1804 581.748 19.3359 597.015 16.7326 597.625L16.664 597.647C-20.7869 604.249 -50.7653 590.807 -72.4087 557.649C-90.6206 529.745 -99.7915 493.254 -106.535 466.657C-108.199 460.076 -109.753 453.838 -111.271 448.649C-117.648 426.248 -102.084 410.186 -84.7357 404.603ZM23.6988 593.642C40.4295 588.258 80.2517 572.565 86.3999 543.938C90.0361 527.021 71.3653 517.208 47.687 504.766C21.7425 491.161 -10.5913 474.162 -21.5511 441.048C-32.6653 407.453 -61.4923 399.47 -83.5911 406.279C-83.7968 406.345 -83.9339 406.389 -84.1396 406.456C-100.665 411.774 -115.446 426.978 -109.376 448.19C-107.857 453.38 -106.304 459.617 -104.618 466.267C-91.0245 520.261 -68.2824 610.677 16.3864 595.844C16.6386 595.687 19.4475 595.01 23.6988 593.642Z" fill="url(#paint2_linear_829_1694)"/>
</g>
<g opacity="0.8571">
<path d="M-96.7855 391.145C-96.5798 391.079 -96.3741 391.012 -96.1684 390.946C-69.7277 382.815 -35.2667 392.317 -22.0086 432.337C-9.6359 469.842 27.3209 489.215 57.0039 504.796C84.0362 518.959 107.352 531.215 102.763 552.223C93.4816 595.334 21.0119 613.509 20.3041 613.661L20.2356 613.683C-22.9437 621.296 -57.5253 605.777 -82.4434 567.616C-103.481 535.398 -114.076 493.309 -121.848 462.576C-123.774 454.944 -125.568 447.724 -127.261 441.758C-134.629 416.042 -116.739 397.566 -96.7855 391.145ZM28.4116 609.462C47.7479 603.239 93.8145 585.082 100.989 551.886C105.246 532.195 83.584 520.846 56.1671 506.428C26.2121 490.707 -11.1073 471.148 -23.7007 432.958C-36.537 394.013 -69.9986 384.795 -95.5944 392.73C-114.997 398.747 -132.606 416.451 -125.434 441.321C-123.719 447.356 -121.925 454.576 -119.999 462.208C-104.283 524.679 -77.9945 629.171 19.9114 611.97C20.2543 611.86 23.4746 611.051 28.4116 609.462Z" fill="url(#paint3_linear_829_1694)"/>
</g>
<g opacity="0.8095">
<path d="M-108.882 377.777C-108.607 377.689 -108.402 377.622 -108.196 377.556C-78.3268 368.322 -39.2997 379.079 -24.3196 424.451C-10.2446 467.01 31.6512 489.032 65.3447 506.73C95.9342 522.776 122.332 536.614 117.19 560.374C106.644 609.192 24.6498 629.75 23.8049 629.946L23.7364 629.969C-25.1712 638.592 -64.2874 620.974 -92.5709 577.764C-116.435 541.233 -128.453 493.545 -137.162 458.723C-139.352 450.04 -141.364 441.906 -143.322 435.117C-151.61 405.836 -131.372 385.015 -108.882 377.777ZM33.1466 625.35C55.0886 618.289 107.4 597.668 115.554 559.993C120.432 537.528 95.7784 524.643 64.623 508.249C30.6575 490.412 -11.6009 468.203 -25.8967 424.958C-40.5236 380.684 -78.5512 370.211 -107.598 379.181C-107.803 379.247 -108.077 379.335 -108.283 379.401C-130.019 386.397 -149.589 406.473 -141.539 434.543C-139.581 441.332 -137.547 449.535 -135.358 458.218C-117.541 529.097 -87.6843 647.733 23.5494 628.212C23.8701 628.033 27.524 627.16 33.1466 625.35Z" fill="url(#paint4_linear_829_1694)"/>
</g>
<g opacity="0.7619">
<path d="M-120.931 364.318C-120.657 364.23 -120.383 364.142 -120.109 364.054C-86.7204 353.763 -43.2179 365.729 -26.4692 416.361C-10.7384 464.065 36.2115 488.624 73.9156 508.438C108.062 526.368 137.542 541.788 131.848 568.3C120.082 622.733 28.4271 645.72 27.5137 645.938L27.4451 645.96C-27.2129 655.526 -70.8882 635.969 -102.468 587.688C-129.159 546.842 -142.531 493.534 -152.338 454.598C-154.767 444.932 -157.111 435.769 -159.243 428.203C-168.637 395.721 -146.096 372.417 -120.931 364.318ZM37.8595 641.17C62.407 633.27 121.053 610.232 130.143 567.94C135.573 542.724 107.997 528.282 73.1031 509.911C35.1492 490.026 -12.1168 465.19 -28.0463 416.868C-44.4417 367.334 -86.9889 355.514 -119.601 365.631C-119.875 365.72 -120.149 365.808 -120.355 365.874C-144.765 373.73 -166.661 396.22 -157.666 427.696C-155.512 435.33 -153.168 444.493 -150.739 454.159C-130.821 533.447 -97.4184 666.158 27.0745 644.338C27.508 644.274 31.5512 643.2 37.8595 641.17Z" fill="url(#paint5_linear_829_1694)"/>
</g>
<g opacity="0.7143">
<path d="M-132.959 350.928C-132.685 350.84 -132.342 350.73 -132.067 350.641C-95.2287 339.316 -47.1602 352.538 -28.643 408.43C-11.2099 461.188 40.679 488.398 82.3936 510.327C121.639 530.932 152.681 547.211 146.323 576.36C133.359 636.478 32.0431 661.892 31.0611 662.133L30.9925 662.155C-29.3939 672.731 -77.6723 651.097 -112.481 597.723C-141.975 552.632 -156.793 493.657 -167.628 450.585C-170.32 439.869 -172.882 429.792 -175.279 421.403C-185.618 385.515 -160.729 359.866 -132.959 350.928ZM42.5946 657.058C69.8163 648.298 134.638 622.818 144.755 575.956C150.806 547.966 120.307 531.966 81.6277 511.709C39.6632 489.709 -12.5197 462.291 -30.1515 408.915C-48.269 354.031 -95.4287 341.046 -131.582 352.151C-158.914 360.568 -183.82 385.693 -173.771 420.917C-171.374 429.306 -168.789 439.452 -166.097 450.168C-155.307 493.103 -140.464 551.918 -111.173 596.848C-76.2521 650.337 -29.811 671.2 30.7125 660.579C31.0553 660.469 35.6006 659.309 42.5946 657.058Z" fill="url(#paint6_linear_829_1694)"/>
</g>
<g opacity="0.6667">
<path d="M-145.009 337.47C-144.666 337.359 -144.392 337.271 -144.049 337.161C-122.91 330.66 -99.5064 332.138 -79.964 341.368C-57.0433 352.161 -40.121 372.53 -30.9298 400.384C-11.7945 458.197 45.0336 488.056 90.7586 512.102C133.72 534.614 167.686 552.451 160.775 584.352C146.545 650.177 35.6367 677.997 34.5175 678.281L34.449 678.303C-31.6657 689.89 -84.4788 666.158 -122.653 607.734C-154.905 558.307 -171.146 493.734 -183.078 446.548C-186.01 434.849 -188.813 423.79 -191.475 414.578C-202.599 375.309 -175.385 347.245 -145.009 337.47ZM47.3074 672.878C77.1347 663.279 148.201 635.335 159.298 583.994C165.9 553.253 132.479 535.695 90.0612 513.462C44.0863 489.345 -13.0822 459.368 -32.3477 400.916C-52.2558 340.702 -103.982 326.461 -143.563 338.67C-143.906 338.78 -144.18 338.869 -144.523 338.979C-174.213 348.534 -200.806 375.943 -189.876 414.139C-187.214 423.351 -184.48 434.432 -181.456 446.178C-169.637 493.248 -153.44 557.684 -121.255 606.906C-82.9238 665.582 -32.0608 688.428 34.2596 676.774C34.671 676.642 39.6277 675.349 47.3074 672.878Z" fill="url(#paint7_linear_829_1694)"/>
</g>
<g opacity="0.619">
<path d="M-157.127 324.033C-156.784 323.923 -156.441 323.813 -156.098 323.702C-133.108 316.606 -107.748 318.286 -86.4365 328.31C-61.5657 339.989 -43.1583 362.152 -33.1944 392.407C-12.4032 455.364 49.501 487.83 99.2144 513.923C145.915 538.412 182.712 557.76 175.296 592.321C159.869 663.831 39.3676 694.057 38.1113 694.385L38.0427 694.407C-0.640119 701.179 -35.3826 696.916 -65.2296 681.766C-90.7696 668.712 -113.512 647.188 -132.734 617.792C-167.812 564.051 -185.498 493.81 -198.436 442.558C-201.632 429.808 -204.675 417.766 -207.511 407.777C-219.649 365.125 -190.04 334.626 -157.127 324.033ZM52.0424 688.766C84.4753 678.329 161.855 647.899 173.909 592.01C181.133 558.495 144.72 539.402 98.5635 515.192C48.6467 488.938 -13.5294 456.332 -34.4972 392.826C-56.1959 327.284 -112.419 311.765 -155.588 325.052C-188.428 335.167 -218.054 365.142 -206.002 407.292C-203.144 417.349 -200.101 429.391 -196.906 442.141C-184.058 493.347 -166.438 563.381 -131.426 616.917C-89.7767 680.733 -34.4011 705.609 37.7848 692.901C38.2868 692.815 43.677 691.459 52.0424 688.766Z" fill="url(#paint8_linear_829_1694)"/>
</g>
<g opacity="0.5714">
<path d="M-169.155 310.643C-168.743 310.511 -168.4 310.401 -168.058 310.29C-143.285 302.621 -115.83 304.459 -92.9091 315.252C-66.0662 327.886 -46.1737 351.842 -35.3906 384.408C-12.8971 452.419 53.9462 487.535 107.648 515.675C157.996 542.094 197.785 562.978 189.816 600.291C173.124 677.507 43.0298 710.139 41.6828 710.421L41.6142 710.443C-0.149518 717.752 -37.7137 713.186 -69.871 696.735C-97.4738 682.68 -121.998 659.382 -142.722 627.669C-180.626 569.613 -199.736 493.775 -213.612 438.433C-217.07 424.632 -220.331 411.676 -223.432 400.864C-236.608 354.987 -204.673 322.074 -169.155 310.643ZM56.7552 704.586C91.7937 693.31 175.417 660.417 188.43 599.98C196.296 563.76 156.892 543.131 106.997 516.945C53.0919 488.643 -14.0918 453.41 -36.6934 384.827C-60.1141 313.934 -120.972 297.181 -167.569 311.572C-167.912 311.682 -168.324 311.814 -168.667 311.925C-203.637 323.179 -234.949 355.438 -222.039 400.491C-218.938 411.303 -215.654 424.328 -212.196 438.129C-198.274 493.38 -179.277 569.103 -141.439 626.953C-96.3798 695.955 -36.5823 722.815 41.4911 709.12C41.834 709.01 47.7041 707.499 56.7552 704.586Z" fill="url(#paint9_linear_829_1694)"/>
</g>
<g opacity="0.5238">
<path d="M-181.204 297.185C-180.793 297.052 -180.381 296.92 -179.97 296.788C-153.324 288.591 -123.956 290.495 -99.3349 302.103C-70.5199 315.693 -49.1643 341.373 -37.5864 376.408C-13.4371 449.565 58.3916 487.24 116.126 517.565C170.213 545.96 212.924 568.401 204.291 608.351C194.939 651.712 152.17 681.525 117.911 698.986C80.9043 717.785 45.5951 726.574 45.2302 726.616L45.1616 726.638C0.248386 734.506 -40.0004 729.593 -74.583 711.954C-104.202 696.807 -130.532 671.894 -152.781 637.795C-193.489 575.494 -213.976 493.966 -228.948 434.511C-232.647 419.728 -236.171 405.721 -239.515 394.154C-253.588 344.781 -219.397 309.476 -181.204 297.185ZM61.4903 720.474C99.1344 708.359 189.003 673.003 203.064 608.065C211.482 569.093 169.133 546.837 115.59 518.721C57.6745 488.303 -14.4262 450.489 -38.7986 376.874C-63.9878 300.721 -129.434 282.643 -179.55 298.091C-179.962 298.223 -180.373 298.356 -180.716 298.466C-218.292 310.559 -251.998 345.254 -238.143 393.713C-234.777 405.348 -231.253 419.355 -227.555 434.138C-212.605 493.525 -192.162 574.915 -151.588 637.033C-103.142 711.152 -38.8318 740.042 44.9699 725.337C45.4499 725.182 51.685 723.63 61.4903 720.474Z" fill="url(#paint10_linear_829_1694)"/>
</g>
<g opacity="0.4762">
<path d="M-193.232 283.795C-192.821 283.662 -192.341 283.508 -191.929 283.375C-163.5 274.605 -132.038 276.668 -105.717 289.092C-74.9519 303.568 -52.1111 331.041 -39.7605 368.477C-13.9089 446.689 62.9274 486.991 124.65 519.364C182.385 549.689 228.019 573.688 218.811 616.321C208.814 662.614 163.107 694.585 126.49 713.183C86.8955 733.344 49.1666 742.61 48.8238 742.72L48.7552 742.742C0.761061 751.147 -42.2409 745.909 -79.1803 727.061C-110.862 710.911 -138.973 684.225 -162.793 647.831C-206.328 581.216 -228.238 494.09 -244.239 430.499C-248.2 414.664 -251.942 399.743 -255.551 387.354C-270.569 334.575 -234.03 296.925 -193.232 283.795ZM67.1165 736.076C81.8587 731.331 103.604 723.425 125.978 712.061C162.321 693.551 207.751 661.897 217.606 616.103C226.645 574.357 181.305 550.566 124.024 520.474C62.0976 487.94 -14.9886 447.566 -40.9947 368.875C-67.906 287.37 -137.918 268.037 -191.6 284.632C-192.012 284.765 -192.423 284.897 -192.903 285.052C-233.153 298.005 -269.185 335.114 -254.386 386.978C-250.845 399.39 -247.081 414.38 -243.051 430.192C-227.072 493.714 -205.206 580.703 -161.807 647.135C-109.973 726.372 -41.1502 757.292 48.517 741.532C48.997 741.377 56.077 739.629 67.1165 736.076Z" fill="url(#paint11_linear_829_1694)"/>
</g>
<g opacity="0.4286">
<path d="M-205.419 270.381C-204.939 270.226 -204.459 270.072 -203.91 269.895C-173.63 260.528 -140.211 262.795 -112.212 275.965C-79.4744 291.397 -55.1706 320.595 -42.0473 360.432C-14.4935 443.697 67.2819 486.65 133.015 521.138C194.557 553.418 243.092 578.906 233.332 624.29C222.712 673.586 174.023 707.576 135.069 727.38C92.9331 748.814 52.7602 758.714 52.3488 758.847L52.2802 758.869C1.20517 767.811 -44.572 762.179 -83.8682 742.121C-117.566 724.879 -147.506 696.51 -172.85 657.73C-219.211 586.8 -242.544 494.076 -259.573 426.349C-263.797 409.464 -267.849 393.583 -271.563 380.394C-278.777 355.159 -275.293 330.948 -261.46 310.446C-249.154 292.253 -229.281 278.06 -205.419 270.381ZM71.9199 751.942C87.6221 746.889 110.786 738.45 134.579 726.326C173.28 706.679 221.671 672.936 232.195 624.05C241.787 579.553 193.592 554.183 132.504 522.136C66.5892 487.554 -15.4581 444.462 -43.1444 360.785C-71.8463 273.952 -146.424 253.363 -203.557 270.993C-204.037 271.147 -204.448 271.28 -204.928 271.434C-247.784 285.226 -286.257 324.862 -270.375 380.088C-266.57 393.323 -262.587 409.226 -258.364 426.111C-241.357 493.769 -218.067 586.356 -171.841 657.102C-116.667 741.548 -43.4221 774.451 52.1327 757.705C52.5441 757.572 60.1261 755.738 71.9199 751.942Z" fill="url(#paint12_linear_829_1694)"/>
</g>
<g opacity="0.381">
<path d="M-217.468 256.922C-216.92 256.745 -216.44 256.591 -215.891 256.414C-183.806 246.542 -148.337 248.83 -118.638 262.816C-83.9282 279.203 -58.2299 310.148 -44.2653 352.364C-15.0556 440.774 71.7053 486.286 141.449 522.891C172.877 539.425 202.56 555.006 222.432 572.079C244.516 591.09 252.567 610.227 247.784 632.282C236.519 684.51 184.938 720.566 143.559 741.53C98.8804 764.236 56.2635 774.772 55.8521 774.904C1.69611 784.384 -46.9028 778.448 -88.5557 757.181C-124.317 738.937 -156.037 708.795 -182.953 667.719C-232.071 592.453 -256.828 494.13 -274.886 422.268C-279.35 404.4 -283.642 387.536 -287.621 373.525C-295.32 346.78 -291.618 321.136 -276.884 299.436C-263.861 280.18 -242.77 265.065 -217.468 256.922ZM76.7016 767.74C93.3638 762.378 117.945 753.407 143.181 740.592C184.286 719.716 235.569 683.908 246.739 632.089C256.951 584.817 205.765 557.911 140.938 523.888C71.0126 487.19 -15.9516 441.517 -45.3623 352.717C-75.8548 260.555 -154.999 238.71 -215.629 257.465C-216.109 257.62 -216.589 257.774 -217.069 257.929C-262.598 272.581 -303.397 314.631 -286.571 373.262C-282.569 387.343 -278.277 404.206 -273.813 422.074C-255.8 493.799 -231.065 592.053 -181.991 667.182C-123.475 756.836 -45.7401 791.701 55.6801 773.9C56.1822 773.814 64.1536 771.778 76.7016 767.74Z" fill="url(#paint13_linear_829_1694)"/>
</g>
<g opacity="0.3333">
<path d="M-229.565 243.554C-229.016 243.377 -228.468 243.201 -227.919 243.024C-193.982 232.557 -156.556 235.047 -125.179 249.78C-88.5194 267.053 -61.3359 299.791 -46.5079 344.455C-15.596 437.92 76.1725 486.06 149.927 524.78C183.167 542.245 214.573 558.71 235.506 576.729C258.833 596.779 267.373 616.969 262.327 640.32C250.439 695.55 195.876 733.626 152.228 755.773C105.009 779.752 59.9477 790.922 59.5363 791.055C2.32144 801.141 -49.0526 794.811 -93.0624 772.333C-130.818 753.066 -164.435 721.263 -192.807 677.779C-244.729 598.268 -270.931 494.278 -289.995 418.349C-294.721 399.43 -299.254 381.584 -303.477 366.817C-311.593 338.542 -307.67 311.464 -292.195 288.541C-278.521 268.015 -256.306 252.16 -229.565 243.554ZM81.505 783.606C99.1271 777.935 125.08 768.523 151.804 754.925C195.246 732.844 249.51 695.016 261.372 640.173C272.205 590.128 218.028 561.687 149.484 525.756C75.5484 486.942 -16.4014 438.709 -47.4458 344.832C-79.6603 247.32 -163.439 224.241 -227.588 244.053C-228.068 244.208 -228.616 244.384 -229.096 244.539C-277.232 260.03 -320.424 304.515 -302.654 366.553C-298.409 381.387 -293.876 399.233 -289.15 418.153C-270.04 493.991 -243.928 597.934 -192.05 677.308C-130.169 772.011 -47.9214 808.907 59.2957 790.072C59.7292 790.009 68.2027 787.887 81.505 783.606Z" fill="url(#paint14_linear_829_1694)"/>
</g>
<g opacity="0.2857">
<path d="M-241.615 230.095C-241.066 229.919 -240.449 229.72 -239.9 229.544C-204.181 218.502 -164.661 221.152 -131.651 236.722C-93.0198 254.95 -64.3733 289.413 -48.7726 336.478C-16.227 435.019 80.5713 485.855 158.314 526.623C193.367 545.019 226.426 562.39 248.58 581.379C273.149 602.467 282.134 623.801 276.801 648.38C264.199 706.565 206.745 746.707 160.761 770.061C110.953 795.402 63.4949 807.117 63.0834 807.25C2.78772 817.873 -51.3395 811.218 -97.7968 787.484C-137.637 767.147 -173.014 733.639 -202.91 687.768C-257.658 603.943 -285.215 494.333 -305.376 414.29C-310.343 394.388 -315.116 375.56 -319.626 359.902C-328.137 330.163 -324.017 301.583 -307.731 277.416C-293.227 255.942 -269.796 239.165 -241.615 230.095ZM86.2864 799.404C104.868 793.424 132.239 783.48 160.384 769.122C206.23 745.813 263.454 705.897 275.939 648.052C287.278 595.346 230.2 565.416 157.896 527.439C118.832 506.928 74.4886 483.649 36.662 453.579C-6.83701 419.051 -35.0348 380.81 -49.5955 336.742C-83.5785 233.97 -171.855 209.613 -239.523 230.482C-240.071 230.658 -240.62 230.835 -241.1 230.989C-291.909 247.341 -337.428 294.241 -318.644 359.661C-314.134 375.319 -309.452 394.101 -304.394 414.05C-284.255 494.024 -256.72 603.565 -202.016 687.254C-136.863 787.187 -50.1712 826.135 62.8429 806.267C63.345 806.181 72.2984 803.906 86.2864 799.404Z" fill="url(#paint15_linear_829_1694)"/>
</g>
<g opacity="0.2381">
<path d="M-253.642 216.705C-253.025 216.507 -252.408 216.308 -251.791 216.11C-214.198 204.541 -172.765 207.256 -137.987 223.62C-97.4051 242.735 -67.2734 278.991 -50.9 328.456C-16.63 432.12 85.0852 485.538 166.838 528.422C203.636 547.77 238.417 566.026 261.654 586.029C287.487 608.224 296.872 630.565 291.322 656.35C285.487 683.362 270.052 708.997 245.368 732.461C225.675 751.214 200.096 768.606 169.341 784.258C116.991 810.871 67.0886 823.222 66.5866 823.307C3.20993 834.468 -53.6925 827.419 -102.484 802.544C-144.319 781.183 -181.545 745.923 -213.013 697.758C-270.588 609.618 -299.59 494.341 -320.757 410.231C-326.055 389.3 -330.978 369.536 -335.752 353.055C-344.681 321.785 -340.409 291.794 -323.245 266.359C-307.934 243.868 -283.264 226.238 -253.642 216.705ZM91.0214 815.292C110.563 809.003 139.352 798.527 168.939 783.478C217.121 758.963 277.328 717.027 290.435 656.181C295.936 630.715 286.571 608.67 261.032 586.683C237.818 566.749 203.127 548.54 166.329 529.192C125.249 507.588 78.6621 483.214 38.8923 451.575C-6.84368 415.268 -36.5022 375.075 -51.7914 328.743C-87.4965 220.62 -180.407 195.029 -251.594 216.955C-252.143 217.131 -252.691 217.308 -253.309 217.507C-306.723 234.697 -354.636 284.032 -334.885 352.927C-330.202 369.362 -325.188 389.173 -319.89 410.103C-298.723 494.213 -269.765 609.353 -212.303 697.378C-143.671 802.475 -52.4894 843.384 66.4123 822.531C66.8922 822.376 76.3477 820.015 91.0214 815.292Z" fill="url(#paint16_linear_829_1694)"/>
</g>
<g opacity="0.1905">
<path d="M-265.76 203.269C-265.143 203.07 -264.458 202.85 -263.84 202.651C-224.465 190.509 -180.937 193.383 -144.55 210.516C-101.928 230.564 -70.4013 268.566 -53.2553 320.433C-17.2829 429.151 89.4398 485.197 175.204 530.197C213.814 550.476 250.318 569.616 274.706 590.611C301.782 613.844 311.678 637.308 305.774 664.342C299.675 692.65 283.43 719.53 257.595 744.121C236.914 763.798 210.096 782.043 177.852 798.477C122.96 826.362 70.6138 839.348 70.1117 839.434C3.65417 851.132 -56.07 843.78 -107.219 817.695C-151.047 795.31 -190.033 758.345 -223.026 707.793C-283.426 615.34 -313.852 494.465 -336.047 406.219C-341.608 384.237 -346.771 363.49 -351.72 346.232C-361.134 313.453 -356.575 282.007 -338.578 255.396C-322.594 231.704 -296.822 213.265 -265.76 203.269ZM95.8249 831.159C116.258 824.583 146.533 813.552 177.563 797.813C228.149 772.069 291.294 727.976 305.047 664.197C310.811 637.435 301.025 614.315 274.221 591.221C249.924 570.272 213.442 551.201 174.832 530.922C131.757 508.295 82.8819 482.689 41.1006 449.501C-6.87252 411.417 -37.9917 369.271 -54.0095 320.675C-91.5052 207.223 -188.982 180.377 -263.598 203.406C-264.215 203.604 -264.763 203.781 -265.38 203.979C-321.401 222.008 -371.708 273.78 -350.944 346.058C-345.995 363.316 -340.763 384.041 -335.271 406.045C-313.098 494.222 -282.694 615.028 -222.406 707.367C-150.365 817.651 -54.6705 860.59 70.0281 838.704C70.4395 838.571 80.397 836.124 95.8249 831.159Z" fill="url(#paint17_linear_829_1694)"/>
</g>
<g opacity="0.1429">
<path d="M-277.81 189.81C-277.125 189.59 -276.439 189.369 -275.822 189.17C-234.595 176.432 -189.132 179.441 -150.954 197.436C-106.359 218.439 -73.3481 258.234 -55.4514 312.433C-17.8233 426.297 93.885 484.902 183.659 532.018C224.105 553.296 262.331 573.32 287.848 595.238C316.12 619.601 326.485 644.049 320.386 672.358C313.954 701.984 296.967 730.087 269.982 755.805C248.38 776.384 220.254 795.505 186.5 812.651C129.02 841.9 74.2759 855.43 73.7739 855.516C4.23539 867.751 -58.2419 860.074 -111.77 832.71C-157.683 809.255 -198.497 770.608 -233.06 717.761C-296.265 621.061 -328.068 494.497 -351.291 402.116C-357.092 379.152 -362.565 357.444 -367.71 339.341C-377.541 305.031 -372.83 272.173 -353.955 244.295C-337.3 219.63 -310.312 200.27 -277.81 189.81ZM100.606 846.956C122 840.071 153.646 828.6 186.142 812.01C239.087 785.129 305.214 739.016 319.568 672.167C325.709 644.224 315.388 619.913 287.341 595.78C261.915 573.908 223.757 553.862 183.334 532.653C138.265 509.001 87.1016 482.164 43.3993 447.474C-6.81083 407.612 -39.3222 363.491 -56.1151 312.722C-95.4013 193.942 -197.376 165.817 -275.579 189.925C-276.196 190.124 -276.813 190.322 -277.43 190.521C-336.125 209.41 -388.757 263.596 -367.049 339.28C-361.835 357.361 -356.431 379.09 -350.63 402.054C-327.429 494.367 -295.601 620.772 -232.487 717.425C-157.059 832.826 -57.011 877.771 73.5752 854.899C74.0551 854.744 84.4241 852.164 100.606 846.956Z" fill="url(#paint18_linear_829_1694)"/>
</g>
<g opacity="0.095238">
<path d="M-289.838 176.421C-289.152 176.2 -288.466 175.979 -287.712 175.737C-244.68 162.493 -197.146 165.592 -157.358 184.356C-110.813 206.245 -76.3167 247.834 -57.5567 304.48C-18.2262 423.398 98.4211 484.653 192.206 533.886C234.442 556.026 274.322 576.956 300.922 599.888C330.436 625.29 341.245 650.882 334.86 680.418C328.164 711.341 310.436 740.666 282.232 767.534C259.641 789.037 230.345 808.988 195.101 826.917C135.08 857.438 77.8918 871.603 77.3212 871.711C4.70183 884.483 -60.5286 876.481 -116.482 847.929C-164.458 823.473 -207.053 783.052 -243.141 727.819C-309.104 626.783 -342.398 494.643 -366.628 398.194C-372.692 374.179 -378.405 351.489 -383.793 332.631C-394.041 296.79 -389.11 262.498 -369.494 233.398C-352.029 207.488 -323.779 187.344 -289.838 176.421ZM105.41 862.823C127.763 855.629 160.827 843.625 194.766 826.344C250.093 798.166 319.134 750.056 334.201 680.252C340.516 650.966 329.773 625.579 300.462 600.339C273.884 577.475 234.004 556.545 191.836 534.383C144.752 509.64 91.3216 481.639 45.6762 445.379C-6.70239 403.716 -40.7431 357.665 -58.2645 304.632C-99.2507 180.569 -205.882 151.143 -287.582 176.376C-288.199 176.575 -288.885 176.795 -289.502 176.994C-350.802 196.722 -405.807 253.412 -383.176 332.433C-377.788 351.29 -372.074 373.98 -366.01 397.996C-341.781 494.444 -308.508 626.516 -242.59 727.414C-163.821 848.024 -59.2605 894.999 77.1911 871.071C77.6025 870.939 88.4735 868.273 105.41 862.823Z" fill="url(#paint19_linear_829_1694)"/>
</g>
<g opacity="0.047619">
<path d="M-301.956 162.984C-301.202 162.741 -300.516 162.521 -299.762 162.278C-254.878 148.439 -205.387 151.74 -163.852 171.229C-115.336 194.074 -79.3762 237.387 -59.8434 296.435C-18.8793 420.429 102.844 484.29 200.64 535.638C244.62 558.731 286.222 580.545 314.043 604.448C344.821 630.956 356.099 657.533 349.449 688.366C342.512 720.653 324.042 751.201 294.619 779.219C271.107 801.624 240.504 822.45 203.772 841.16C141.049 872.929 81.4855 887.707 80.9149 887.815C41.7986 894.65 4.49433 895.83 -29.9937 891.182C-62.2527 886.878 -92.932 877.37 -121.101 862.967C-131.05 857.917 -140.764 852.186 -150.221 845.842C-90.6476 885.644 -15.3871 904.121 80.7383 887.266C81.7203 887.026 141.078 872.314 203.367 840.609C261.052 811.294 333.053 761.096 348.813 688.268C355.413 657.754 344.226 631.224 313.605 604.967C285.875 581.111 244.341 559.275 200.292 536.204C151.213 510.437 95.4949 481.204 47.9286 443.443C-6.68713 400.001 -42.1665 352.067 -60.4385 296.702C-103.215 167.31 -214.413 136.627 -299.563 162.895C-300.249 163.116 -300.934 163.337 -301.62 163.557C-365.595 184.146 -422.925 243.25 -399.258 325.723C-393.605 345.404 -387.674 369.008 -381.347 394.074C-354.36 501.445 -317.872 646.563 -243.078 752.705C-246.514 747.906 -249.857 742.925 -253.154 737.854C-321.942 632.505 -356.592 494.744 -381.918 394.182C-388.222 369.184 -394.176 345.512 -399.829 325.831C-410.541 288.549 -405.344 252.733 -384.918 222.388C-366.667 195.393 -337.269 174.349 -301.956 162.984Z" fill="url(#paint20_linear_829_1694)"/>
</g>
<path d="M-169.137 311.167C-168.726 311.035 -168.383 310.925 -168.04 310.814C-143.199 303.123 -115.744 304.961 -92.7325 315.801C-65.8675 328.504 -45.9064 352.437 -35.1477 385.162C-12.7204 452.968 54.0101 487.968 107.575 516.153C158.013 542.618 197.893 563.548 189.831 601.043C173.114 678.419 42.9298 711.004 41.6049 711.354L41.5363 711.376C-0.295978 718.707 -37.7916 714.119 -70.0174 697.691C-97.6424 683.567 -122.144 660.337 -142.89 628.556C-180.795 570.5 -199.883 494.73 -213.758 439.388C-217.194 425.656 -220.478 412.631 -223.579 401.819C-236.842 355.668 -204.861 322.665 -169.137 311.167ZM56.5251 704.811C91.495 693.557 174.845 660.752 187.877 600.612C195.672 564.642 156.427 544.037 106.714 517.944C52.8083 489.642 -14.3754 454.409 -36.999 385.758C-60.3314 315.139 -120.939 298.457 -167.4 312.804C-202.639 323.691 -234.635 355.942 -221.659 401.202C-218.558 412.014 -215.274 425.038 -211.838 438.77C-197.938 493.953 -178.895 569.586 -141.238 627.342C-96.3135 696.16 -36.6288 722.905 41.1704 709.299C41.741 709.191 47.5426 707.702 56.5251 704.811Z" fill="url(#paint21_linear_829_1694)"/>
</g>
<defs>
<linearGradient id="paint0_linear_829_1694" x1="-48.4444" y1="527.69" x2="36.8099" y2="478.249" gradientUnits="userSpaceOnUse">
<stop stop-color="#F15C22"/>
<stop offset="1" stop-color="#5553A4"/>
</linearGradient>
<linearGradient id="paint1_linear_829_1694" x1="-57.7208" y1="535.443" x2="46.2677" y2="475.164" gradientUnits="userSpaceOnUse">
<stop stop-color="#F15C22"/>
<stop offset="1" stop-color="#5553A4"/>
</linearGradient>
<linearGradient id="paint2_linear_829_1694" x1="-66.8513" y1="543.248" x2="55.8642" y2="472.144" gradientUnits="userSpaceOnUse">
<stop stop-color="#F15C22"/>
<stop offset="1" stop-color="#5553A4"/>
</linearGradient>
<linearGradient id="paint3_linear_829_1694" x1="-76.0948" y1="550.927" x2="65.3633" y2="468.959" gradientUnits="userSpaceOnUse">
<stop stop-color="#F15C22"/>
<stop offset="1" stop-color="#5553A4"/>
</linearGradient>
<linearGradient id="paint4_linear_829_1694" x1="-85.404" y1="558.838" x2="74.8037" y2="466.039" gradientUnits="userSpaceOnUse">
<stop stop-color="#F15C22"/>
<stop offset="1" stop-color="#5553A4"/>
</linearGradient>
<linearGradient id="paint5_linear_829_1694" x1="-94.4742" y1="566.501" x2="84.4589" y2="462.863" gradientUnits="userSpaceOnUse">
<stop stop-color="#F15C22"/>
<stop offset="1" stop-color="#5553A4"/>
</linearGradient>
<linearGradient id="paint6_linear_829_1694" x1="-103.663" y1="574.324" x2="94.0736" y2="459.793" gradientUnits="userSpaceOnUse">
<stop stop-color="#F15C22"/>
<stop offset="1" stop-color="#5553A4"/>
</linearGradient>
<linearGradient id="paint7_linear_829_1694" x1="-112.965" y1="582.109" x2="103.542" y2="456.713" gradientUnits="userSpaceOnUse">
<stop stop-color="#F15C22"/>
<stop offset="1" stop-color="#5553A4"/>
</linearGradient>
<linearGradient id="paint8_linear_829_1694" x1="-122.247" y1="589.887" x2="113.046" y2="453.612" gradientUnits="userSpaceOnUse">
<stop stop-color="#F15C22"/>
<stop offset="1" stop-color="#5553A4"/>
</linearGradient>
<linearGradient id="paint9_linear_829_1694" x1="-131.392" y1="597.625" x2="122.594" y2="450.536" gradientUnits="userSpaceOnUse">
<stop stop-color="#F15C22"/>
<stop offset="1" stop-color="#5553A4"/>
</linearGradient>
<linearGradient id="paint10_linear_829_1694" x1="-140.627" y1="605.463" x2="132.132" y2="447.527" gradientUnits="userSpaceOnUse">
<stop stop-color="#F15C22"/>
<stop offset="1" stop-color="#5553A4"/>
</linearGradient>
<linearGradient id="paint11_linear_829_1694" x1="-149.839" y1="613.238" x2="141.671" y2="444.439" gradientUnits="userSpaceOnUse">
<stop stop-color="#F15C22"/>
<stop offset="1" stop-color="#5553A4"/>
</linearGradient>
<linearGradient id="paint12_linear_829_1694" x1="-159.058" y1="620.993" x2="151.211" y2="441.34" gradientUnits="userSpaceOnUse">
<stop stop-color="#F15C22"/>
<stop offset="1" stop-color="#5553A4"/>
</linearGradient>
<linearGradient id="paint13_linear_829_1694" x1="-168.307" y1="628.71" x2="160.641" y2="438.26" gradientUnits="userSpaceOnUse">
<stop stop-color="#F15C22"/>
<stop offset="1" stop-color="#5553A4"/>
</linearGradient>
<linearGradient id="paint14_linear_829_1694" x1="-177.38" y1="636.493" x2="170.236" y2="435.271" gradientUnits="userSpaceOnUse">
<stop stop-color="#F15C22"/>
<stop offset="1" stop-color="#5553A4"/>
</linearGradient>
<linearGradient id="paint15_linear_829_1694" x1="-186.62" y1="644.319" x2="179.761" y2="432.253" gradientUnits="userSpaceOnUse">
<stop stop-color="#F15C22"/>
<stop offset="1" stop-color="#5553A4"/>
</linearGradient>
<linearGradient id="paint16_linear_829_1694" x1="-195.898" y1="652.111" x2="189.259" y2="429.16" gradientUnits="userSpaceOnUse">
<stop stop-color="#F15C22"/>
<stop offset="1" stop-color="#5553A4"/>
</linearGradient>
<linearGradient id="paint17_linear_829_1694" x1="-205.118" y1="659.867" x2="198.788" y2="426.069" gradientUnits="userSpaceOnUse">
<stop stop-color="#F15C22"/>
<stop offset="1" stop-color="#5553A4"/>
</linearGradient>
<linearGradient id="paint18_linear_829_1694" x1="-214.295" y1="667.623" x2="208.357" y2="422.987" gradientUnits="userSpaceOnUse">
<stop stop-color="#F15C22"/>
<stop offset="1" stop-color="#5553A4"/>
</linearGradient>
<linearGradient id="paint19_linear_829_1694" x1="-223.536" y1="675.461" x2="217.875" y2="419.969" gradientUnits="userSpaceOnUse">
<stop stop-color="#F15C22"/>
<stop offset="1" stop-color="#5553A4"/>
</linearGradient>
<linearGradient id="paint20_linear_829_1694" x1="-232.722" y1="683.209" x2="227.474" y2="416.84" gradientUnits="userSpaceOnUse">
<stop stop-color="#F15C22"/>
<stop offset="1" stop-color="#5553A4"/>
</linearGradient>
<linearGradient id="paint21_linear_829_1694" x1="-131.558" y1="598.43" x2="122.631" y2="451.218" gradientUnits="userSpaceOnUse">
<stop stop-color="#F15C22"/>
<stop offset="1" stop-color="#5553A4"/>
</linearGradient>
<clipPath id="clip0_829_1694">
<rect width="648" height="841" fill="white" transform="translate(408.486 800.563) rotate(162.16)"/>
</clipPath>
</defs>
</svg>
